<?xml version="1.0" standalone="no"?>
<!DOCTYPE svg PUBLIC "-//W3C//DTD SVG 20010904//EN"
 "http://www.w3.org/TR/2001/REC-SVG-20010904/DTD/svg10.dtd">
<svg version="1.0" xmlns="http://www.w3.org/2000/svg"
 width="139.000000pt" height="139.000000pt" viewBox="0 0 139.000000 139.000000"
 preserveAspectRatio="xMidYMid meet">
<metadata>
Created by potrace 1.14, written by Peter Selinger 2001-2017
</metadata>
<g transform="translate(0.000000,139.000000) scale(0.100000,-0.100000)"
fill="#000000" stroke="none">
<path d="M575 1373 c-27 -7 -60 -16 -71 -18 -12 -3 -35 -12 -50 -20 -16 -8
-35 -15 -42 -15 -7 0 -34 -15 -60 -32 -26 -18 -51 -33 -57 -33 -16 0 -55 -38
-49 -47 3 -5 2 -7 -3 -6 -20 6 -123 -98 -123 -125 0 -10 -7 -25 -15 -34 -8 -8
-13 -19 -9 -24 3 -5 -2 -12 -10 -15 -28 -11 -65 -126 -71 -214 0 -14 -3 -30
-6 -35 -6 -13 -3 -115 5 -189 4 -36 15 -70 29 -90 12 -17 22 -33 21 -36 -2
-14 10 -39 21 -44 7 -2 11 -13 9 -24 -4 -11 5 -30 23 -49 15 -17 33 -39 39
-49 6 -11 20 -23 32 -29 12 -5 22 -15 22 -22 0 -7 7 -13 15 -13 8 0 15 -4 15
-9 0 -9 38 -24 53 -22 5 1 6 -3 3 -8 -6 -9 60 -68 77 -69 30 -2 66 -16 71 -28
3 -8 13 -14 23 -14 15 0 15 2 -3 16 -10 9 -3 6 17 -5 20 -11 39 -18 42 -14 4
3 7 1 7 -6 0 -8 8 -11 20 -8 11 3 22 1 25 -3 3 -5 13 -9 23 -9 9 0 58 -2 107
-4 50 -2 97 -1 105 4 8 4 42 15 75 25 33 11 62 21 65 24 3 3 28 16 56 29 29
13 63 33 77 45 14 12 38 31 53 42 43 31 65 57 59 72 -2 7 -1 11 4 8 22 -14
118 113 105 137 -4 7 -3 9 1 4 7 -6 43 54 50 83 1 3 5 19 9 35 4 17 11 38 16
47 6 11 6 19 0 23 -6 4 -7 13 -1 23 13 25 6 179 -9 197 -7 8 -9 15 -6 15 4 0
1 10 -6 23 -7 12 -11 26 -10 31 2 4 -3 15 -10 24 -10 12 -10 14 0 8 17 -10 15
9 -2 23 -8 7 -17 24 -21 38 -3 15 -17 40 -31 56 -13 16 -24 33 -24 39 0 14
-46 68 -53 62 -2 -3 -7 7 -11 21 -4 16 -13 25 -26 25 -11 0 -20 7 -20 15 0 8
-7 15 -15 15 -8 0 -15 4 -15 9 0 5 -21 19 -47 31 -27 12 -56 29 -65 38 -10 8
-18 11 -18 6 0 -5 -7 0 -15 10 -8 11 -15 17 -15 13 0 -4 -12 0 -26 10 -14 9
-38 18 -52 20 -45 7 -67 11 -67 13 0 1 -39 3 -87 5 -49 2 -91 6 -95 8 -5 2
-30 -2 -58 -10z m39 -145 c-6 -10 -4 -10 7 -2 17 14 62 8 101 -12 31 -16 34
-23 16 -44 -11 -12 -10 -12 3 -2 13 10 19 9 29 -3 7 -8 10 -22 6 -30 -3 -9 -2
-13 4 -10 6 3 10 1 10 -4 0 -6 -11 -11 -25 -11 -14 0 -25 -5 -25 -11 0 -7 11
-8 31 -4 72 16 137 0 170 -42 13 -16 12 -17 -3 -5 -13 11 -21 11 -35 2 -17
-11 -17 -11 0 -6 11 3 24 3 30 -1 7 -4 16 -8 21 -8 6 0 21 -27 34 -60 45 -112
18 -233 -62 -281 -40 -24 -129 -27 -176 -6 -37 15 -76 63 -63 76 3 3 0 6 -8 6
-20 0 -43 113 -34 166 9 54 26 95 36 88 5 -3 6 1 4 8 -3 8 7 21 24 31 21 12
28 23 24 34 -4 9 1 22 13 31 15 11 15 13 2 9 -9 -3 -22 1 -28 9 -14 16 -35 19
-25 4 3 -6 -1 -13 -9 -16 -26 -10 -19 -33 9 -29 15 1 25 -3 25 -11 0 -10 -8
-10 -32 -3 -48 13 -53 11 -27 -12 l24 -20 -27 17 c-31 18 -35 32 -13 40 12 5
13 10 4 20 -6 7 -7 19 -3 25 4 7 3 9 -3 6 -5 -3 -21 0 -36 8 -15 8 -27 10 -27
5 0 -5 8 -11 18 -14 9 -3 23 -15 29 -26 10 -16 10 -18 -1 -14 -10 4 -12 -2
-10 -23 4 -24 3 -25 -5 -8 -6 13 -10 15 -10 6 -1 -12 -4 -12 -13 -3 -20 20
-30 14 -18 -10 11 -22 10 -22 -4 -4 -10 12 -12 24 -7 30 6 7 3 16 -5 24 -12
11 -14 9 -14 -7 0 -11 -5 -23 -12 -27 -7 -4 -8 -3 -4 4 4 7 1 12 -8 12 -9 0
-16 5 -16 11 0 5 -5 7 -10 4 -6 -4 -7 -12 -3 -18 5 -9 3 -9 -8 0 -9 8 -20 9
-29 3 -8 -6 -23 -10 -33 -10 -16 0 -16 2 -3 28 19 38 52 65 67 56 8 -4 10 -3
5 4 -7 11 37 26 99 35 17 2 31 5 33 6 2 0 0 -5 -4 -11z m266 -10 c30 -11 80
-57 80 -73 0 -15 -68 -11 -83 4 -6 6 -7 11 -3 11 5 0 3 7 -5 16 -11 13 -14 12
-25 -13 -9 -21 -13 -23 -13 -9 -1 14 -7 17 -26 14 -20 -4 -25 -1 -25 14 0 11
-4 17 -9 13 -15 -9 -25 16 -10 26 17 11 85 9 119 -3z m-10 -84 c0 -8 -4 -12
-10 -9 -5 3 -10 13 -10 21 0 8 5 12 10 9 6 -3 10 -13 10 -21z m-150 -14 c-19
-13 -30 -13 -30 0 0 6 10 10 23 10 18 0 19 -2 7 -10z m327 -21 c26 -13 42 -27
39 -34 -2 -7 2 -12 11 -11 9 0 18 -5 21 -13 3 -9 0 -11 -8 -6 -9 5 -11 4 -6
-4 4 -6 11 -9 16 -6 8 5 44 -85 37 -92 -9 -9 -64 11 -64 23 0 8 4 14 9 14 4 0
8 7 8 15 0 8 -4 15 -10 15 -5 0 -9 6 -7 13 1 6 -7 12 -18 13 -35 2 -38 4 -25
19 9 10 9 15 1 16 -6 1 -17 2 -23 3 -7 1 -17 -1 -23 -5 -14 -9 -45 -7 -39 3 3
5 9 6 14 3 5 -3 12 0 16 6 5 9 0 10 -15 6 -26 -6 -111 28 -89 36 33 13 114 6
155 -14z m53 4 c0 11 70 -72 70 -83 0 -5 -5 -12 -12 -16 -7 -4 -8 -3 -4 4 4 7
2 12 -5 12 -7 0 -10 3 -7 6 4 3 -11 21 -33 41 -21 19 -36 40 -33 45 4 6 10 5
15 -3 5 -8 9 -10 9 -6z m-538 -37 c55 -41 65 -63 67 -146 1 -41 4 -82 6 -90 7
-23 -36 -101 -67 -124 -31 -22 -146 -37 -134 -17 4 7 2 9 -8 5 -21 -8 -68 26
-61 44 4 12 3 13 -10 2 -12 -10 -15 -10 -15 0 0 7 -7 10 -17 5 -14 -5 -15 -4
-6 6 10 10 9 15 -1 23 -8 6 -26 33 -40 61 -37 70 -35 129 4 183 30 42 83 77
100 67 6 -3 10 -2 10 4 0 6 27 9 68 8 57 -2 74 -7 104 -31z m475 -28 c-2 -21
-19 -19 -22 3 -2 9 3 16 10 16 8 0 13 -9 12 -19z m-13 -37 c-2 -3 -12 3 -22
13 -16 17 -16 18 5 5 12 -7 20 -15 17 -18z m66 15 c0 -3 -4 -8 -10 -11 -5 -3
-10 -1 -10 4 0 6 5 11 10 11 6 0 10 -2 10 -4z m-22 -45 c8 -22 7 -31 -2 -34
-9 -4 -11 2 -8 19 2 13 0 24 -5 24 -5 0 -10 7 -10 15 0 22 14 9 25 -24z m-837
-44 c-5 -21 -5 -35 0 -31 5 3 9 1 9 -5 0 -5 -4 -13 -10 -16 -5 -3 -9 -14 -9
-23 1 -15 2 -15 6 1 6 25 20 21 19 -5 -1 -13 4 -22 11 -21 7 2 10 -4 7 -12 -4
-8 -2 -15 4 -15 6 0 8 -9 5 -20 -4 -15 0 -20 13 -21 18 0 18 -1 -1 -9 -11 -5
-15 -9 -10 -9 6 -1 26 -11 45 -23 19 -12 41 -23 48 -24 18 -3 28 -14 14 -14
-7 0 -12 -8 -13 -17 0 -16 -1 -16 -8 0 -6 17 -8 18 -20 3 -11 -13 -17 -14 -30
-4 -15 12 -15 11 0 -7 9 -11 14 -25 12 -32 -2 -7 4 -11 16 -10 11 0 17 5 15 9
-3 5 -9 6 -13 4 -4 -3 -8 1 -8 8 0 19 25 8 38 -15 5 -11 14 -19 20 -19 6 0 6
7 -1 19 -11 21 -14 58 -4 49 3 -4 6 -12 8 -20 1 -7 5 -19 10 -26 4 -7 5 -19 2
-27 -3 -9 0 -12 9 -8 8 3 13 8 11 12 -2 3 9 7 25 7 36 2 36 -2 -1 -21 -30 -15
-95 -21 -87 -7 3 4 -6 8 -19 10 -13 1 -35 3 -48 5 -13 1 -22 5 -20 8 2 3 -10
19 -27 35 -52 49 -73 100 -73 178 1 53 4 72 18 81 10 8 13 14 6 17 -7 2 -3 14
10 31 27 35 31 32 21 -16z m937 -23 c13 -9 29 -29 36 -45 7 -16 14 -27 17 -25
2 2 5 -5 6 -17 1 -12 5 -44 8 -71 5 -36 4 -51 -6 -57 -10 -6 -10 -9 -2 -9 29
0 -47 -128 -90 -152 -23 -13 -115 -19 -132 -9 -5 3 -16 6 -24 7 -7 2 -25 13
-39 26 -20 18 -24 19 -19 6 9 -25 0 -22 -14 5 -6 12 -8 19 -5 15 9 -8 50 31
52 49 1 7 -4 13 -12 13 -8 0 -14 -9 -14 -19 0 -22 -16 -36 -24 -22 -4 5 0 12
6 14 8 4 7 6 -3 6 -22 1 -34 31 -13 31 8 0 12 -4 9 -10 -3 -5 -2 -10 4 -10 6
0 15 10 22 21 6 13 14 17 18 11 3 -5 18 -9 33 -7 17 2 27 -1 25 -8 -1 -7 7
-10 17 -9 17 3 18 2 7 -12 -9 -11 -10 -16 -2 -16 6 0 11 5 11 11 0 5 5 7 12 3
7 -5 8 -3 3 6 -6 10 -4 12 9 7 10 -4 15 -3 11 3 -3 6 -2 10 4 10 5 0 13 -4 16
-10 10 -16 25 -12 19 5 -4 8 -11 12 -16 9 -6 -4 -8 -1 -6 7 3 8 10 13 16 12 8
-2 9 5 3 20 -4 12 -6 28 -3 36 2 7 -2 17 -9 22 -12 8 -12 11 1 19 12 8 9 10
-14 10 -28 0 -28 1 -13 18 10 10 17 24 17 30 0 7 5 12 11 12 5 0 7 5 3 11 -3
6 -1 15 6 19 9 5 9 9 1 14 -6 4 -11 3 -11 -3 0 -17 -30 0 -31 18 0 10 -2 11
-6 3 -2 -6 -8 -10 -12 -8 -4 3 -8 -1 -8 -8 0 -9 7 -12 16 -8 14 5 14 4 1 -14
-11 -15 -11 -16 0 -6 20 17 29 15 25 -5 -2 -10 -4 -20 -4 -23 -4 -19 -20 -30
-35 -24 -17 6 -16 8 5 21 13 8 17 12 8 10 -12 -4 -19 5 -27 30 -10 33 -9 35
21 48 36 16 81 11 115 -11z m102 -105 c0 -24 -16 -25 -29 -1 -8 14 -6 18 10
19 13 1 19 -5 19 -18z m-223 -16 c-4 -3 3 -11 16 -17 31 -16 32 -92 1 -112
-18 -13 -23 -12 -40 8 -10 13 -12 17 -4 11 17 -15 34 -17 25 -3 -3 6 -1 10 4
10 6 0 11 -5 11 -12 0 -6 3 -8 7 -4 9 9 11 66 2 66 -12 0 -18 -28 -8 -34 5 -2
4 -3 -3 -2 -14 3 -11 38 4 47 12 8 -21 23 -42 20 -10 -2 -9 2 5 13 20 16 34
21 22 9z m-17 -58 c0 -14 -4 -25 -8 -25 -7 0 -8 31 -3 48 4 11 11 -3 11 -23z
m-600 -69 c0 10 20 -17 20 -28 0 -5 -5 -8 -11 -8 -5 0 -7 5 -4 10 3 6 0 10 -8
10 -8 0 -17 10 -20 23 -6 21 -6 21 8 3 8 -11 15 -16 15 -10z m300 3 c0 -6 -4
-7 -10 -4 -5 3 -10 11 -10 16 0 6 5 7 10 4 6 -3 10 -11 10 -16z m-75 1 c3 -6
-1 -7 -9 -4 -18 7 -21 14 -7 14 6 0 13 -4 16 -10z m146 -38 c11 -28 3 -82 -12
-82 -5 0 -14 11 -19 25 -10 27 -24 32 -36 14 -3 -6 0 -15 7 -20 11 -7 10 -9
-3 -9 -12 0 -18 8 -18 21 0 11 -4 18 -9 15 -5 -3 -7 -15 -4 -27 5 -17 11 -20
35 -15 23 5 29 3 25 -8 -3 -7 0 -13 6 -12 7 0 12 -3 12 -9 0 -11 -11 -11 -37
0 -13 5 -18 2 -18 -11 0 -15 2 -16 9 -5 7 11 13 9 30 -8 20 -20 57 -19 44 2
-3 6 -1 7 5 3 6 -3 9 -15 7 -26 -4 -20 5 -26 19 -13 15 16 33 10 29 -8 -8 -30
6 -22 22 14 l15 32 -6 -30 c-3 -16 -10 -32 -15 -33 -6 -3 -5 -10 2 -18 14 -17
30 -9 22 11 -4 12 4 15 37 15 38 0 41 -2 36 -22 -3 -15 -1 -12 7 5 9 24 16 28
39 25 19 -3 28 0 28 9 0 8 5 11 12 7 8 -5 0 -17 -22 -35 -19 -16 -36 -26 -38
-24 -3 3 -10 1 -16 -4 -13 -11 -36 -14 -88 -12 -32 1 -38 5 -38 22 0 19 -2 20
-16 8 -14 -11 -18 -11 -29 4 -7 9 -18 17 -26 17 -8 0 -6 5 5 13 17 12 15 14
-15 13 -19 0 -44 3 -56 7 -14 5 -23 4 -23 -2 0 -5 12 -11 27 -13 l28 -3 -25
-23 c-39 -36 -109 -67 -123 -53 -6 6 -16 11 -21 11 -6 0 -4 -5 4 -11 11 -8 2
-9 -34 -6 -27 3 -51 9 -55 13 -3 5 -12 9 -18 9 -7 0 -13 5 -12 10 1 6 6 9 11
7 6 -1 16 2 22 8 7 5 16 6 21 2 4 -4 5 2 3 13 -4 21 -23 23 -23 3 0 -7 -7 -13
-15 -13 -8 0 -21 -4 -28 -9 -7 -4 -19 -2 -28 4 -12 10 -12 16 -2 29 12 14 11
14 -5 2 -15 -12 -19 -12 -32 5 -17 23 -39 94 -31 102 3 3 6 0 6 -7 0 -7 5 -9
10 -6 6 4 9 3 8 -2 -4 -13 26 -48 42 -49 10 -1 17 8 18 25 1 14 -2 22 -6 16
-10 -14 -42 -18 -42 -5 0 5 7 10 16 10 8 0 13 4 10 9 -4 5 7 4 24 -2 19 -7 26
-15 20 -21 -6 -6 -10 -15 -10 -20 0 -6 5 -4 10 4 8 12 10 12 10 1 0 -11 3 -11
15 -1 12 10 13 16 4 26 -10 12 -7 13 12 10 13 -3 28 -5 33 -5 8 -1 5 -19 -9
-53 -4 -11 -3 -18 4 -18 6 0 11 9 11 20 0 11 5 20 11 20 5 0 8 3 6 8 -2 4 16
17 40 28 39 19 46 20 59 7 23 -23 27 -9 4 15 -23 25 -27 40 -5 22 8 -6 20 -8
26 -4 9 5 7 11 -6 21 -26 19 -9 16 20 -3 22 -14 30 -14 23 1 -2 2 7 12 20 20
12 9 19 21 16 27 -5 7 -2 8 5 4 7 -5 17 -20 22 -34z m-301 14 c0 -3 -4 -8 -10
-11 -5 -3 -10 -1 -10 4 0 6 5 11 10 11 6 0 10 -2 10 -4z m-255 -35 c-4 -9 -9
-27 -10 -41 -3 -24 -3 -24 10 -6 8 10 12 23 9 27 -3 5 2 6 10 3 8 -3 17 -13
20 -21 6 -13 4 -14 -9 -3 -14 12 -16 9 -13 -23 1 -23 7 -37 15 -37 10 0 11 5
4 18 -7 14 -6 19 4 19 8 0 12 -4 9 -8 -6 -11 31 -30 41 -21 4 4 1 -5 -5 -19
-9 -19 -19 -26 -39 -26 l-26 0 28 11 c29 11 36 26 12 26 -8 0 -15 -5 -15 -12
0 -6 -3 -9 -6 -5 -3 3 -12 1 -19 -6 -9 -9 -7 -15 9 -30 18 -16 19 -18 3 -13
-10 3 -22 6 -27 6 -15 0 -22 38 -11 59 8 14 8 22 -1 27 -6 4 -8 3 -4 -4 3 -6
1 -14 -6 -18 -7 -4 -10 -4 -6 0 3 4 3 20 -2 35 -5 18 -3 36 5 52 7 13 11 28 8
33 -4 5 -1 6 6 2 7 -5 9 -15 6 -25z m375 -16 c0 -15 -9 -29 -22 -36 -18 -10
-20 -9 -15 5 3 8 2 18 -3 21 -6 4 -10 -1 -10 -10 0 -10 -5 -14 -12 -11 -7 3
-20 9 -29 12 -14 5 -13 9 7 29 12 13 29 25 36 28 22 8 48 -13 48 -38z m-125
-17 c5 4 5 1 1 -6 -6 -9 -11 -10 -20 -3 -7 6 -17 7 -21 3 -5 -4 -5 -1 -1 6 6
9 11 10 20 3 7 -6 17 -7 21 -3z m412 -63 c4 -4 3 -5 -4 -1 -7 3 -13 -1 -15
-11 -3 -15 -5 -15 -10 3 -6 22 12 28 29 9z m54 -28 c-10 -9 -11 -8 -5 6 3 10
9 15 12 12 3 -3 0 -11 -7 -18z m54 13 c4 -6 11 -8 16 -5 5 3 6 -1 3 -9 -4 -9
-17 -14 -34 -13 -15 1 -26 6 -23 10 2 4 14 5 26 2 21 -6 22 -6 3 9 -11 9 -15
16 -9 16 7 0 15 -5 18 -10z m80 -10 c-3 -5 -14 -6 -26 -3 -15 4 -17 8 -8 13
15 10 41 1 34 -10z m-149 -15 c9 -8 11 -15 6 -15 -5 0 -15 7 -22 15 -7 8 -9
15 -6 15 4 0 14 -7 22 -15z m-629 -30 c0 -8 -5 -15 -11 -15 -6 0 -4 -5 4 -10
8 -5 24 -7 35 -4 19 5 19 4 -1 -8 -12 -7 -19 -19 -17 -25 3 -7 -2 -16 -11 -19
-9 -3 -13 -10 -10 -15 3 -5 -3 -6 -12 -2 -10 4 -13 8 -7 10 7 3 9 11 6 20 -5
12 -3 14 7 8 8 -5 11 -4 6 3 -4 6 -14 8 -24 5 -9 -3 -14 -3 -10 2 4 4 0 13 -9
20 -11 8 -13 14 -5 19 7 4 12 2 12 -5 0 -9 3 -9 14 1 8 6 12 18 9 26 -3 9 0
12 9 9 8 -3 15 -12 15 -20z m43 5 c0 7 3 11 6 7 3 -3 3 -11 -1 -17 -8 -13 -35
5 -35 24 0 6 7 2 15 -8 10 -13 15 -15 15 -6z m40 -65 c7 -8 17 -12 24 -8 6 3
8 2 3 -2 -14 -16 -48 -13 -42 3 4 11 -1 13 -22 8 -21 -5 -24 -4 -13 4 21 14
36 12 50 -5z m90 1 c0 -3 -4 -8 -10 -11 -5 -3 -10 -1 -10 4 0 6 5 11 10 11 6
0 10 -2 10 -4z m-225 -17 c-4 -6 3 -23 16 -37 l23 -27 -28 26 c-24 23 -29 49
-10 49 3 0 2 -5 -1 -11z m105 -9 c0 -5 7 -10 15 -10 9 0 18 -6 21 -14 3 -8 13
-12 25 -9 10 3 16 9 13 14 -3 5 -1 9 4 9 6 0 9 -10 8 -23 -1 -30 -31 -33 -50
-5 -12 17 -15 17 -18 4 -3 -14 -7 -14 -36 4 -18 11 -30 25 -27 30 8 13 45 13
45 0z m126 1 c-3 -5 1 -11 8 -14 8 -3 17 -1 20 6 2 7 5 3 5 -9 1 -12 12 -26
26 -32 14 -6 25 -18 25 -27 0 -8 5 -15 10 -15 6 0 10 6 9 13 -1 6 -1 21 0 32
2 19 2 19 15 3 15 -21 42 -24 49 -5 3 9 8 9 18 -2 9 -9 9 -11 2 -7 -7 4 -13 2
-13 -5 0 -8 -12 -10 -37 -6 -37 6 -37 6 -13 -8 14 -7 29 -11 34 -8 5 3 18 7
30 7 21 2 22 5 11 41 -3 11 2 4 12 -15 22 -42 38 -61 47 -53 10 10 7 25 -3 18
-11 -6 -26 13 -17 22 7 7 46 -26 46 -38 0 -4 -9 -11 -21 -14 -14 -5 -18 -10
-11 -17 6 -6 17 -4 30 8 16 13 19 22 11 36 -5 10 -7 23 -4 28 3 6 -1 10 -9 10
-9 0 -16 4 -16 8 0 5 7 9 15 9 8 0 15 -4 15 -9 0 -4 5 -8 11 -8 6 0 9 7 5 15
-3 8 -1 15 4 15 6 0 10 -9 10 -20 0 -11 -7 -20 -16 -20 -8 0 -12 -5 -9 -10 4
-7 13 -7 26 0 11 6 17 15 14 21 -4 5 -2 9 4 9 5 0 11 -6 14 -12 4 -10 7 -10
18 0 9 9 10 12 1 12 -7 0 -12 7 -12 17 0 9 3 13 7 10 3 -4 14 0 24 9 16 14 18
14 24 -5 3 -12 11 -19 16 -16 5 3 6 -1 2 -11 -5 -14 -7 -14 -17 4 -8 14 -16
18 -25 13 -7 -5 -11 -13 -7 -19 8 -14 -4 -43 -15 -36 -5 3 -9 2 -8 -3 4 -24
-2 -43 -13 -37 -7 4 -8 3 -4 -4 4 -7 3 -12 -3 -12 -6 0 -8 -7 -5 -15 4 -8 1
-15 -5 -15 -6 0 -11 6 -11 13 0 6 -5 4 -11 -6 -16 -28 -51 -37 -66 -18 -12 15
-13 15 -7 -1 4 -13 0 -16 -20 -14 -14 2 -26 -1 -26 -6 0 -13 87 -2 132 16 30
13 35 13 35 0 0 -8 -3 -12 -5 -9 -3 3 -11 0 -19 -7 -17 -14 -158 -23 -209 -13
-48 9 -25 26 26 20 32 -4 33 -4 10 6 -14 5 -32 8 -42 6 -11 -3 -15 0 -11 9 3
8 -1 14 -9 14 -13 0 -55 40 -88 83 -12 16 -12 20 1 29 11 8 11 9 -3 4 -10 -3
-20 -1 -24 5 -6 11 2 39 11 39 4 0 4 -4 1 -9z m412 -85 c-12 -22 -58 -74 -58
-65 0 14 32 69 41 69 5 0 8 3 8 8 -1 4 -1 14 0 22 1 13 3 13 10 1 6 -9 6 -22
-1 -35z"/>
<path d="M635 1190 c-3 -5 -1 -10 4 -10 6 0 11 5 11 10 0 6 -2 10 -4 10 -3 0
-8 -4 -11 -10z"/>
<path d="M494 1168 c-4 -6 -3 -8 4 -4 5 3 12 1 14 -6 3 -8 6 -9 11 -1 4 6 0
13 -8 17 -8 3 -17 0 -21 -6z"/>
<path d="M660 1155 c0 -8 4 -15 10 -15 5 0 7 7 4 15 -4 8 -8 15 -10 15 -2 0
-4 -7 -4 -15z"/>
<path d="M583 1135 c-8 -22 6 -33 17 -15 13 20 12 30 0 30 -6 0 -13 -7 -17
-15z"/>
<path d="M860 1070 c0 -5 5 -10 11 -10 5 0 7 5 4 10 -3 6 -8 10 -11 10 -2 0
-4 -4 -4 -10z"/>
<path d="M747 1036 c-3 -8 2 -16 14 -19 17 -5 18 -3 7 11 -7 9 -13 18 -14 20
-1 2 -4 -4 -7 -12z"/>
<path d="M801 1031 c-8 -6 -9 -11 -3 -15 6 -3 14 -1 17 5 9 14 2 20 -14 10z"/>
<path d="M730 994 c0 -8 5 -12 10 -9 6 3 10 10 10 16 0 5 -4 9 -10 9 -5 0 -10
-7 -10 -16z"/>
<path d="M860 995 c0 -9 5 -15 11 -13 6 2 11 8 11 13 0 5 -5 11 -11 13 -6 2
-11 -4 -11 -13z"/>
<path d="M807 986 c-4 -9 -2 -16 3 -16 12 0 13 -33 3 -44 -5 -4 -8 -13 -8 -19
0 -7 -5 -12 -12 -12 -6 0 -15 -4 -20 -9 -5 -5 -3 -6 5 -2 7 4 12 1 12 -9 0 -9
-4 -13 -10 -10 -5 3 -10 1 -10 -4 0 -6 5 -11 11 -11 5 0 7 -5 3 -12 -4 -7 -3
-8 5 -4 6 4 9 12 6 17 -4 5 -2 9 4 9 17 0 25 -42 10 -51 -10 -6 -21 -1 -36 16
-17 20 -20 30 -13 53 4 16 4 36 -1 43 -7 11 -9 10 -9 -5 0 -11 -8 -28 -17 -39
-10 -11 -13 -17 -7 -14 11 6 30 -36 25 -56 -1 -5 3 -6 9 -2 5 3 13 -1 16 -9 3
-9 10 -14 14 -11 4 3 10 -2 14 -10 3 -8 11 -15 17 -15 8 0 8 4 -1 15 -6 8 -9
19 -5 25 9 15 25 12 19 -4 -3 -8 0 -17 7 -22 8 -4 10 -3 5 4 -4 8 0 12 10 12
16 0 16 1 -1 14 -17 12 -18 16 -5 32 13 16 13 17 0 9 -11 -6 -10 -3 2 11 11
13 15 28 11 44 -3 14 -3 22 1 18 4 -3 17 3 28 14 15 15 17 23 9 31 -8 8 -11 6
-11 -7 0 -10 -4 -14 -12 -10 -7 4 -8 3 -4 -4 4 -7 3 -12 -3 -12 -5 0 -17 -7
-25 -16 -13 -12 -16 -13 -16 -1 0 7 3 17 7 21 4 4 8 21 9 38 1 21 -1 26 -7 17
-7 -12 -10 -12 -18 -1 -7 11 -9 11 -14 -2z m53 -106 c0 -5 -4 -10 -10 -10 -5
0 -10 5 -10 10 0 6 5 10 10 10 6 0 10 -4 10 -10z"/>
<path d="M905 990 c-3 -5 -1 -10 4 -10 6 0 11 5 11 10 0 6 -2 10 -4 10 -3 0
-8 -4 -11 -10z"/>
<path d="M757 983 c-9 -8 12 -33 27 -33 6 0 2 6 -9 12 -19 11 -19 11 0 19 15
6 16 8 4 8 -9 1 -19 -2 -22 -6z"/>
<path d="M690 945 c-10 -12 -9 -16 4 -21 9 -4 20 -4 23 0 4 3 -2 6 -12 6 -14
0 -15 3 -5 15 7 8 10 15 7 15 -2 0 -10 -7 -17 -15z"/>
<path d="M730 949 c0 -5 5 -7 10 -4 6 3 10 8 10 11 0 2 -4 4 -10 4 -5 0 -10
-5 -10 -11z"/>
<path d="M788 943 c-10 -2 -18 -11 -18 -18 0 -18 26 -9 34 11 3 8 4 13 3 13
-1 -1 -10 -3 -19 -6z"/>
<path d="M909 921 c-19 -15 -20 -20 -9 -38 12 -18 15 -19 28 -7 8 8 11 21 8
30 -3 8 -2 12 3 9 5 -3 12 -1 15 4 11 18 -23 20 -45 2z"/>
<path d="M975 930 c-3 -5 1 -10 10 -10 9 0 13 5 10 10 -3 6 -8 10 -10 10 -2 0
-7 -4 -10 -10z"/>
<path d="M695 900 c-3 -5 1 -10 9 -10 9 0 16 5 16 10 0 6 -4 10 -9 10 -6 0
-13 -4 -16 -10z"/>
<path d="M945 869 c-4 -6 -5 -12 -2 -15 2 -3 7 2 10 11 7 17 1 20 -8 4z"/>
<path d="M870 850 c0 -5 5 -10 11 -10 5 0 7 5 4 10 -3 6 -8 10 -11 10 -2 0 -4
-4 -4 -10z"/>
<path d="M701 840 c-9 -5 -5 -9 10 -13 28 -7 31 -6 14 10 -6 6 -18 8 -24 3z"/>
<path d="M966 825 c4 -8 10 -12 15 -9 11 6 2 24 -11 24 -5 0 -7 -7 -4 -15z"/>
<path d="M864 818 c-4 -7 -3 -8 5 -4 6 4 20 2 29 -6 15 -12 16 -11 3 5 -16 20
-27 22 -37 5z"/>
<path d="M945 790 c3 -5 10 -10 16 -10 5 0 9 5 9 10 0 6 -7 10 -16 10 -8 0
-12 -4 -9 -10z"/>
<path d="M740 779 c0 -6 -7 -9 -15 -5 -9 3 -15 0 -15 -10 0 -12 4 -13 23 -2
12 7 26 11 30 10 5 -1 6 2 2 8 -8 13 -25 13 -25 -1z"/>
<path d="M910 779 c0 -5 5 -7 10 -4 6 3 10 8 10 11 0 2 -4 4 -10 4 -5 0 -10
-5 -10 -11z"/>
<path d="M871 759 c9 -17 13 -19 19 -8 11 16 4 29 -16 29 -12 0 -13 -4 -3 -21z"/>
<path d="M760 739 c-11 -20 -11 -20 14 -4 30 20 32 25 11 25 -8 0 -19 -9 -25
-21z"/>
<path d="M820 730 c0 -5 5 -10 10 -10 6 0 10 5 10 10 0 6 -4 10 -10 10 -5 0
-10 -4 -10 -10z"/>
<path d="M1130 950 c0 -5 5 -10 11 -10 5 0 7 5 4 10 -3 6 -8 10 -11 10 -2 0
-4 -4 -4 -10z"/>
<path d="M400 1060 c0 -5 5 -10 11 -10 5 0 7 5 4 10 -3 6 -8 10 -11 10 -2 0
-4 -4 -4 -10z"/>
<path d="M475 1061 c-3 -5 -1 -12 5 -16 5 -3 10 1 10 9 0 18 -6 21 -15 7z"/>
<path d="M453 1025 c0 -14 3 -28 8 -31 5 -3 9 6 9 20 0 14 -4 27 -9 30 -5 3
-8 -6 -8 -19z"/>
<path d="M327 1023 c3 -7 0 -20 -7 -28 -11 -13 -10 -14 3 -10 19 8 29 52 11
52 -7 0 -10 -6 -7 -14z"/>
<path d="M500 1030 c-11 -7 -11 -10 -2 -10 7 0 10 -5 6 -12 -4 -7 -3 -8 5 -4
6 4 9 11 6 16 -3 5 3 11 12 13 13 3 14 5 3 6 -8 0 -22 -4 -30 -9z"/>
<path d="M370 1019 c0 -8 4 -20 9 -27 7 -11 9 -11 14 1 3 9 -1 21 -9 27 -11
10 -14 10 -14 -1z"/>
<path d="M535 1009 c-4 -6 -5 -12 -2 -15 2 -3 7 2 10 11 7 17 1 20 -8 4z"/>
<path d="M565 1000 c3 -5 8 -10 11 -10 2 0 4 5 4 10 0 6 -5 10 -11 10 -5 0 -7
-4 -4 -10z"/>
<path d="M420 991 c0 -5 6 -11 13 -14 8 -3 6 -11 -8 -28 -11 -13 -13 -18 -5
-12 9 7 21 8 29 4 9 -6 10 -11 2 -15 -7 -5 -6 -15 5 -32 13 -20 14 -27 4 -39
-9 -11 -16 -13 -24 -5 -15 15 -26 12 -26 -9 0 -21 -20 -32 -50 -26 -11 2 -20
0 -20 -5 0 -17 12 -40 22 -40 5 0 7 4 3 9 -7 12 32 34 45 26 6 -4 9 -1 8 6 -2
7 5 15 16 17 10 2 16 0 13 -5 -4 -6 9 -9 28 -8 24 2 35 -2 35 -11 0 -8 -4 -14
-9 -14 -5 0 -17 -3 -27 -7 -11 -4 -15 -3 -10 5 4 7 -2 9 -21 6 -41 -8 -46 -14
-27 -35 20 -23 46 -25 38 -4 -7 17 7 20 23 4 8 -8 15 -5 25 10 8 12 17 18 21
15 3 -3 3 3 0 15 -3 13 -1 21 6 21 7 0 9 -6 6 -12 -4 -7 1 -4 10 7 9 11 21 19
26 17 6 -1 8 2 5 7 -4 5 -2 12 4 16 5 3 10 1 10 -5 0 -6 4 -9 9 -5 5 3 -1 17
-14 31 -14 15 -23 30 -20 34 2 3 -1 7 -8 8 -29 2 -48 9 -60 21 -10 11 -8 12
12 6 21 -6 22 -5 10 8 -13 14 -16 13 -32 -1 -16 -15 -18 -14 -23 4 -5 21 -44
51 -44 35z m67 -70 c-3 -12 1 -22 10 -25 8 -4 11 -1 7 5 -4 7 4 9 22 7 23 -2
30 -9 32 -29 2 -14 -4 -31 -13 -39 -23 -19 -65 2 -65 34 0 13 -7 27 -17 30
-14 6 -14 8 3 21 25 19 27 19 21 -4z m-43 -156 c-4 -8 -7 -15 -9 -15 -2 0 -5
7 -9 15 -3 9 0 15 9 15 9 0 12 -6 9 -15z"/>
<path d="M552 985 c4 -4 3 -18 -3 -32 -8 -21 -6 -24 8 -19 26 8 47 -9 41 -32
-4 -14 -2 -19 7 -15 15 5 16 43 2 43 -5 0 -3 8 4 18 11 14 11 15 -1 5 -20 -18
-30 -16 -30 6 0 10 -8 22 -17 25 -10 4 -14 4 -11 1z"/>
<path d="M330 971 c0 -5 5 -13 10 -16 6 -3 10 -2 10 4 0 5 -4 13 -10 16 -5 3
-10 2 -10 -4z"/>
<path d="M370 963 c0 -5 4 -14 9 -21 7 -11 9 -11 14 1 3 8 3 18 0 21 -9 8 -23
7 -23 -1z"/>
<path d="M290 951 c0 -6 4 -13 10 -16 6 -3 7 1 4 9 -7 18 -14 21 -14 7z"/>
<path d="M335 929 c-4 -6 -3 -15 3 -21 6 -6 11 -4 15 6 7 18 -9 31 -18 15z"/>
<path d="M393 901 c1 -11 8 -21 15 -21 12 0 12 3 1 18 -7 9 -14 19 -16 21 -1
2 -1 -6 0 -18z"/>
<path d="M360 887 c0 -7 9 -18 20 -25 20 -12 21 -12 4 13 -18 28 -24 31 -24
12z"/>
<path d="M440 880 c6 -11 13 -20 16 -20 2 0 0 9 -6 20 -6 11 -13 20 -16 20 -2
0 0 -9 6 -20z"/>
<path d="M320 872 c0 -5 6 -17 14 -27 13 -18 14 -18 9 8 -5 24 -23 39 -23 19z"/>
<path d="M590 819 c0 -5 5 -7 10 -4 6 3 10 8 10 11 0 2 -4 4 -10 4 -5 0 -10
-5 -10 -11z"/>
<path d="M586 785 c4 -8 11 -15 16 -15 6 0 5 6 -2 15 -7 8 -14 15 -16 15 -2 0
-1 -7 2 -15z"/>
<path d="M550 766 c7 -7 14 -6 21 1 9 9 7 12 -9 10 -14 -1 -18 -5 -12 -11z"/>
<path d="M400 726 c0 -10 8 -16 22 -16 12 0 19 1 17 3 -2 1 -12 9 -21 16 -15
12 -18 11 -18 -3z"/>
<path d="M471 704 c0 -11 3 -14 6 -6 3 7 2 16 -1 19 -3 4 -6 -2 -5 -13z"/>
<path d="M535 710 c3 -5 8 -10 11 -10 2 0 4 5 4 10 0 6 -5 10 -11 10 -5 0 -7
-4 -4 -10z"/>
<path d="M220 816 c0 -8 5 -18 10 -21 6 -4 8 -15 5 -24 -3 -10 1 -24 10 -31 9
-8 15 -8 15 -2 0 6 -5 14 -10 17 -8 5 -7 11 0 20 8 10 8 19 0 34 -12 24 -30
28 -30 7z"/>
<path d="M260 715 c-8 -9 -8 -15 -2 -15 12 0 26 19 19 26 -2 2 -10 -2 -17 -11z"/>
<path d="M300 711 c0 -5 10 -13 21 -16 17 -6 19 -9 8 -16 -9 -6 -10 -9 -2 -9
23 0 22 18 -2 34 -14 9 -25 12 -25 7z"/>
<path d="M266 690 c-16 -5 -17 -8 -6 -15 8 -5 15 -4 18 3 2 6 10 8 18 5 8 -3
14 -3 14 0 0 10 -25 14 -44 7z"/>
<path d="M265 650 c-3 -5 -1 -10 4 -10 6 0 11 5 11 10 0 6 -2 10 -4 10 -3 0
-8 -4 -11 -10z"/>
<path d="M285 630 c-3 -5 -1 -10 4 -10 6 0 11 5 11 10 0 6 -2 10 -4 10 -3 0
-8 -4 -11 -10z"/>
<path d="M1130 874 c0 -8 5 -12 10 -9 6 3 10 10 10 16 0 5 -4 9 -10 9 -5 0
-10 -7 -10 -16z"/>
<path d="M1106 819 c3 -5 14 -9 24 -9 10 0 22 -4 25 -10 3 -6 -1 -7 -9 -4 -9
3 -16 1 -16 -5 0 -6 6 -11 14 -11 8 0 16 -3 19 -7 2 -5 2 -2 0 6 -2 9 3 12 16
8 14 -3 18 -1 14 10 -3 8 -12 12 -19 9 -7 -3 -16 -1 -19 3 -2 5 -16 11 -30 13
-13 3 -22 1 -19 -3z"/>
<path d="M1180 766 c0 -2 8 -10 18 -17 15 -13 16 -12 3 4 -13 16 -21 21 -21
13z"/>
<path d="M1125 729 c-3 -3 3 -9 13 -11 11 -3 19 0 19 7 0 13 -25 16 -32 4z"/>
<path d="M1170 701 c0 -5 7 -12 16 -15 22 -9 24 -8 18 9 -7 16 -34 21 -34 6z"/>
<path d="M1134 672 c2 -9 8 -18 14 -20 17 -5 15 25 -2 31 -9 4 -13 0 -12 -11z"/>
<path d="M974 641 c4 -6 1 -11 -6 -11 -10 0 -10 -2 1 -9 10 -7 8 -12 -10 -25
-13 -9 -18 -16 -11 -16 17 0 54 39 50 53 -3 6 -10 13 -18 15 -7 3 -10 0 -6 -7z"/>
<path d="M1180 640 c-9 -6 -10 -10 -3 -10 6 0 15 5 18 10 8 12 4 12 -15 0z"/>
<path d="M1130 605 c0 -8 4 -15 10 -15 5 0 7 7 4 15 -4 8 -8 15 -10 15 -2 0
-4 -7 -4 -15z"/>
<path d="M1065 599 c-4 -5 -12 -6 -18 -3 -7 4 -6 1 2 -7 10 -10 15 -11 18 -2
2 7 11 9 19 6 8 -3 14 -3 14 0 0 10 -30 16 -35 6z"/>
<path d="M980 576 c0 -2 7 -9 15 -16 13 -11 14 -10 9 4 -5 14 -24 23 -24 12z"/>
<path d="M1020 571 c0 -5 7 -14 15 -21 16 -14 18 -10 9 14 -6 17 -24 22 -24 7z"/>
<path d="M1070 540 c0 -5 5 -10 11 -10 5 0 7 5 4 10 -3 6 -8 10 -11 10 -2 0
-4 -4 -4 -10z"/>
<path d="M771 623 c-7 -8 -10 -17 -7 -20 9 -9 29 13 25 25 -2 6 -10 3 -18 -5z"/>
<path d="M780 590 c0 -5 5 -10 10 -10 6 0 10 5 10 10 0 6 -4 10 -10 10 -5 0
-10 -4 -10 -10z"/>
<path d="M653 541 c10 -4 17 -11 15 -16 -2 -4 8 -9 21 -10 l23 -2 -23 18 c-13
10 -31 18 -39 18 -11 0 -10 -2 3 -8z"/>
<path d="M530 530 c0 -5 5 -10 11 -10 5 0 7 5 4 10 -3 6 -8 10 -11 10 -2 0 -4
-4 -4 -10z"/>
<path d="M622 522 c3 -11 0 -19 -7 -19 -8 0 -11 7 -8 16 5 13 3 14 -8 3 -11
-10 -10 -15 4 -30 15 -14 19 -15 27 -2 5 8 7 17 4 21 -2 4 1 9 8 11 7 3 5 7
-6 11 -15 6 -17 3 -14 -11z"/>
<path d="M401 487 c13 -29 14 -30 44 -17 19 8 19 9 1 9 -11 1 -28 9 -39 18
-18 17 -18 17 -6 -10z"/>
<path d="M651 494 c0 -11 3 -14 6 -6 3 7 2 16 -1 19 -3 4 -6 -2 -5 -13z"/>
<path d="M580 486 c0 -2 8 -10 18 -17 15 -13 16 -12 3 4 -13 16 -21 21 -21 13z"/>
<path d="M475 470 c-8 -13 4 -32 16 -25 12 8 12 35 0 35 -6 0 -13 -4 -16 -10z"/>
<path d="M562 463 c-6 -2 -10 -9 -6 -14 8 -14 21 -11 21 6 0 8 -1 15 -1 14 -1
0 -7 -3 -14 -6z"/>
<path d="M656 457 c2 -7 13 -13 24 -13 14 0 16 3 8 13 -6 7 -17 13 -24 13 -7
0 -11 -6 -8 -13z"/>
<path d="M842 445 c-11 -12 -10 -15 3 -15 8 0 15 7 15 15 0 18 -2 18 -18 0z"/>
<path d="M586 424 c-9 -24 -7 -31 4 -14 9 13 11 13 20 0 11 -17 13 -10 4 14
-8 20 -20 20 -28 0z"/>
<path d="M1013 425 c0 -8 4 -12 9 -9 5 3 6 10 3 15 -9 13 -12 11 -12 -6z"/>
<path d="M557 423 c-4 -3 -7 -11 -7 -17 0 -6 5 -5 12 2 6 6 9 14 7 17 -3 3 -9
2 -12 -2z"/>
<path d="M930 410 c11 -21 40 -17 40 6 0 8 -10 14 -25 14 -22 0 -24 -3 -15
-20z"/>
<path d="M590 591 c0 -6 4 -13 10 -16 6 -3 7 1 4 9 -7 18 -14 21 -14 7z"/>
<path d="M340 340 c0 -5 5 -10 11 -10 5 0 7 5 4 10 -3 6 -8 10 -11 10 -2 0 -4
-4 -4 -10z"/>
<path d="M820 265 c-14 -16 -10 -18 14 -9 9 3 16 10 16 15 0 14 -16 11 -30 -6z"/>
<path d="M615 251 c3 -6 -3 -14 -12 -20 -10 -6 -13 -11 -7 -11 5 0 18 6 28 13
17 13 18 14 2 20 -10 4 -14 3 -11 -2z"/>
<path d="M651 241 c-8 -15 -8 -22 1 -27 7 -4 10 -4 6 1 -4 4 -3 14 4 22 6 7 8
16 5 19 -3 3 -10 -3 -16 -15z"/>
<path d="M565 240 c3 -5 8 -10 11 -10 2 0 4 5 4 10 0 6 -5 10 -11 10 -5 0 -7
-4 -4 -10z"/>
<path d="M680 235 c0 -8 5 -15 10 -15 6 0 10 7 10 15 0 8 -4 15 -10 15 -5 0
-10 -7 -10 -15z"/>
<path d="M705 199 c-4 -6 -5 -12 -2 -15 2 -3 7 2 10 11 7 17 1 20 -8 4z"/>
</g>
</svg>
