<?xml version="1.0" standalone="no"?>
<!DOCTYPE svg PUBLIC "-//W3C//DTD SVG 20010904//EN"
 "http://www.w3.org/TR/2001/REC-SVG-20010904/DTD/svg10.dtd">
<svg version="1.0" xmlns="http://www.w3.org/2000/svg"
 width="700.000000pt" height="700.000000pt" viewBox="0 0 700.000000 700.000000"
 preserveAspectRatio="xMidYMid meet">
<metadata>
Created by potrace 1.14, written by Peter Selinger 2001-2017
</metadata>
<g transform="translate(0.000000,700.000000) scale(0.100000,-0.100000)"
fill="#000000" stroke="none">
<path d="M3280 6994 c-763 -55 -1456 -333 -2030 -815 -144 -121 -368 -350
-483 -494 -663 -828 -911 -1906 -681 -2950 137 -617 454 -1204 902 -1666 120
-125 285 -274 302 -274 18 0 132 178 174 272 137 307 123 259 131 443 9 197
24 252 87 318 50 51 152 126 186 137 18 5 22 12 18 28 -3 11 -15 68 -27 126
-12 58 -22 107 -23 107 -1 1 -30 -4 -66 -12 -138 -28 -227 23 -250 143 -5 30
-26 79 -49 115 -48 77 -107 233 -123 326 -8 51 -9 92 -1 157 l11 89 -34 40
c-64 75 -88 173 -100 416 -4 91 -3 154 5 192 14 65 92 202 149 261 48 50 211
158 326 216 82 42 98 46 173 50 111 4 245 -15 302 -43 l46 -23 44 24 c50 26
72 25 181 -12 174 -59 255 -120 346 -261 102 -158 143 -261 171 -431 14 -90
15 -122 6 -218 -7 -61 -20 -136 -31 -166 -141 -387 -205 -529 -268 -599 -36
-40 -37 -41 -32 -113 5 -82 42 -165 103 -231 39 -42 30 -47 -16 -9 -29 25 -31
25 -20 5 18 -33 86 -80 145 -98 47 -15 55 -15 91 0 l40 16 -25 -21 c-35 -29
-118 -21 -205 20 l-66 30 183 -189 c100 -105 185 -190 189 -190 3 0 14 39 24
88 52 253 97 359 226 532 50 68 78 92 241 208 101 73 213 157 249 188 35 31
89 73 119 93 144 95 239 376 211 619 -18 150 -56 289 -96 348 -45 66 -85 181
-92 266 l-6 67 44 45 45 45 17 165 c22 202 33 242 94 331 94 136 343 317 511
373 149 49 368 38 481 -24 26 -14 81 -51 122 -83 96 -75 123 -126 145 -278 9
-59 24 -144 35 -188 23 -97 24 -196 4 -304 -13 -67 -14 -100 -5 -176 17 -154
13 -193 -25 -303 -59 -170 -103 -260 -217 -441 -107 -170 -111 -177 -124 -260
-12 -77 -44 -419 -44 -470 0 -14 15 -29 48 -47 155 -88 191 -115 229 -172 21
-31 60 -107 87 -167 27 -61 81 -157 121 -215 60 -87 86 -139 148 -295 114
-287 122 -318 122 -460 0 -66 -4 -173 -9 -239 l-9 -118 23 12 c44 24 338 328
442 458 434 544 687 1163 759 1857 15 151 15 536 0 675 -80 715 -330 1322
-769 1870 -102 126 -382 406 -507 506 -537 428 -1135 681 -1795 759 -130 15
-516 27 -630 19z"/>
</g>
</svg>
