<svg viewBox="0 0 1734 1734" xmlns="http://www.w3.org/2000/svg" xml:space="preserve" style="fill-rule:evenodd;clip-rule:evenodd;stroke-linejoin:round;stroke-miterlimit:2"><circle cx="866.667" cy="866.667" r="866.48"/><clipPath id="a"><circle cx="866.667" cy="866.667" r="866.48"/></clipPath><g clip-path="url(#a)"><path d="M552.008 706.226s-12.304-9.051-25.706-12.177c-13.392-3.11-52.427-7.862-75.994-4.33-23.558 3.514-94.885 49.964-107.618 62.823-12.677 12.85-34.248 47.664-36.926 61.47-2.649 13.828-4.815 20.039-4.815 37.374 0 17.358 3.491 22.205 3.491 31.434 0 9.209 1.324 30.309 4.542 46.059 3.234 15.677 11.252 31.901 15.534 37.857 4.269 5.982 12.338 13.044 12.338 13.044s-8.069 40.074-2.722 64.973c5.374 24.925 13.37 41.717 19.285 56.886 5.893 15.178 19.194 30.334 21.392 38.444 2.257 8.117 1.607 19.502 8.049 29.245 6.442 9.759 14.435 12.974 21.951 16.256 7.487 3.249 15.486 2.176 23.567 2.176 7.993 0 26.226-5.992 26.226-5.992l13.908 64.488s-1.087-1.662-10.721 2.678c-9.66 4.333-40.159 29.276-45.509 35.76-5.346 6.497-12.545 19.512-15.232 35.754-2.659 16.249-1.08 69.062-4.025 79.622-2.944 10.568-17.652 39-20.337 47.39-2.668 8.412-15.53 34.413-20.333 44.43-4.813 10.032-34.791 48.702-37.456 59.284-1.739 6.81 1.758 19.949 4.439 29.454 2.665 9.521 10.03 20.02 13.719 31.79 3.73 11.734 6.69 18.958 8.853 34.654 2.125 15.716-5.61 98.574-5.61 98.574l1091.63-1.382s7.864-13.898-1.24-220.147c-1.416-31.986 7.487-65.002 5.365-97.493-2.122-32.517-23.118-82.281-31.039-100.213-7.936-17.914-15.025-46.05-26.823-60.679-11.716-14.606-28.311-41.145-28.311-41.145s-19.288-44.439-26.248-56.873c-6.957-12.459-13.936-21.668-21.398-28.164-7.506-6.513-54.901-32.222-54.901-32.222s8.018-134.08 16.619-146.517c8.543-12.462 51.637-81.797 51.637-81.797l16.055-35.732s20.892-50.939 20.892-66.619c0-15.731-7.657-57.889-4.825-70.437 2.857-12.536 7.513-35.205 7.513-53.608 0-18.422-12.319-59.608-9.915-48.747 2.402 10.824-5.647-34.664-6.677-47.692-1.061-12.973-10.724-33.009-18.752-41.154-8.014-8.117-38.535-31.418-52.995-37.352-14.473-5.969-53.52-12.491-73.314-10.312-19.813 2.161-54.076 12.456-63.72 18.956-9.625 6.512-35.971 20.02-47.084 29.261a56411.95 56411.95 0 0 0-39.073 32.501s-21.696 27.072-28.656 42.765c-6.967 15.737-13.217 101.458-14.184 103.205-4.298 1.353-19.282 14.073-21.699 23.266-2.396 9.242 7.776 44.706 7.776 44.706l9.092 24.382 13.932 17.866s11.22 35.191 15.499 61.758c4.311 26.536 4.816 51.962-.235 77.433-5.105 25.468-16.878 53.636-16.878 53.636s-16.591 30.331-28.37 35.76c-11.798 5.41-32.229 23.699-36.935 28.429-24.6 20.823-80.876 58.763-99.562 72.575-15.527 12.713-43.92 58.214-53.517 76.089-9.663 17.856-26.807 102.398-26.807 102.398l-96.84-99.145c-.43 0 11.458 6.792 17.216 10.153 5.783 3.383 27.108 11.169 39.361 11.169 12.266 0 23.094-13.202 23.094-13.202-.321.333-16.09 10.191-23.9 9.549-7.817-.607-18.45-5.493-25.498-8.927-6.992-3.45-20.865-14.022-25.244-24.391 0 0 18.252 17.152 24.415 15.23-6.759-2.71-21.844-18.063-34.273-45.637-4.294-16.757-4.853-27.676-4.294-36.818.433-7.52 10.162-11.357 17.929-23.283 7.76-11.896 24.885-48.187 28.624-59.579 3.749-11.357 21.979-62.296 27.834-74.748 5.905-12.472 14.466-57.944 7.503-100.728-6.963-42.784-19.79-69.364-31.337-87.214-11.481-17.881-27.011-47.692-51.112-62.295-24.07-14.604-66.363-28.708-78.142-27.889-11.764.81-22.481 11.634-22.481 11.634Z" style="fill:#fff;fill-rule:nonzero"/></g></svg>